<mxfile host="65bd71144e">
    <diagram id="nNbKnPl9B-NpqK2GzWp3" name="第 1 页">
        <mxGraphModel dx="624" dy="344" grid="1" gridSize="10" guides="1" tooltips="1" connect="1" arrows="1" fold="1" page="1" pageScale="1" pageWidth="1169" pageHeight="827" math="0" shadow="0">
            <root>
                <mxCell id="0"/>
                <mxCell id="1" parent="0"/>
                <mxCell id="2" value="&lt;h1&gt;泛化关系&lt;/h1&gt;&lt;p&gt;继承/实现&lt;/p&gt;&lt;p class=&quot;p1&quot; style=&quot;margin: 0px ; font-stretch: normal ; line-height: normal ; font-family: &amp;#34;pingfang sc&amp;#34; ; color: rgb(210 , 148 , 95)&quot;&gt;&lt;font style=&quot;font-size: 12px&quot;&gt;继承使用空心三角形&lt;span class=&quot;s1&quot; style=&quot;font-stretch: normal ; line-height: normal ; font-family: &amp;#34;.applesystemuifontmonospaced&amp;#34;&quot;&gt;+&lt;/span&gt;实线表示&lt;/font&gt;&lt;/p&gt;&lt;p class=&quot;p1&quot; style=&quot;margin: 0px ; font-stretch: normal ; line-height: normal ; font-family: &amp;#34;pingfang sc&amp;#34; ; color: rgb(210 , 148 , 95)&quot;&gt;&lt;font style=&quot;font-size: 12px&quot;&gt;实现使用空心三角形&lt;span class=&quot;s1&quot; style=&quot;font-stretch: normal ; line-height: normal ; font-family: &amp;#34;.applesystemuifontmonospaced&amp;#34;&quot;&gt;+&lt;/span&gt;虚线表示&lt;span class=&quot;s1&quot; style=&quot;font-stretch: normal ; line-height: normal ; font-family: &amp;#34;.applesystemuifontmonospaced&amp;#34;&quot;&gt;/&lt;/span&gt;棒棒糖表示法&lt;/font&gt;&lt;/p&gt;" style="text;html=1;strokeColor=none;fillColor=none;spacing=5;spacingTop=-20;whiteSpace=wrap;overflow=hidden;rounded=0;" parent="1" vertex="1">
                    <mxGeometry x="10" y="10" width="150" height="150" as="geometry"/>
                </mxCell>
                <mxCell id="3" value="" style="endArrow=block;html=1;endFill=0;endSize=10;" parent="1" target="4" edge="1">
                    <mxGeometry width="50" height="50" relative="1" as="geometry">
                        <mxPoint x="160" y="50" as="sourcePoint"/>
                        <mxPoint x="250" y="50" as="targetPoint"/>
                    </mxGeometry>
                </mxCell>
                <mxCell id="4" value="继承" style="text;html=1;strokeColor=none;fillColor=none;align=center;verticalAlign=middle;whiteSpace=wrap;rounded=0;" parent="1" vertex="1">
                    <mxGeometry x="240" y="35" width="60" height="30" as="geometry"/>
                </mxCell>
                <mxCell id="5" value="" style="endArrow=block;html=1;endFill=0;endSize=10;dashed=1;" parent="1" target="6" edge="1">
                    <mxGeometry width="50" height="50" relative="1" as="geometry">
                        <mxPoint x="160" y="85" as="sourcePoint"/>
                        <mxPoint x="250" y="85" as="targetPoint"/>
                    </mxGeometry>
                </mxCell>
                <mxCell id="6" value="实现" style="text;html=1;strokeColor=none;fillColor=none;align=center;verticalAlign=middle;whiteSpace=wrap;rounded=0;" parent="1" vertex="1">
                    <mxGeometry x="240" y="70" width="60" height="30" as="geometry"/>
                </mxCell>
                <mxCell id="7" value="&lt;h1&gt;依赖关系&lt;/h1&gt;&lt;p&gt;&lt;span style=&quot;color: rgb(210 , 148 , 95) ; font-family: &amp;#34;pingfang sc&amp;#34;&quot;&gt;虚线和箭头&lt;/span&gt;&lt;br&gt;&lt;/p&gt;&lt;p class=&quot;p1&quot; style=&quot;margin: 0px ; font-stretch: normal ; line-height: normal ; font-family: &amp;#34;pingfang sc&amp;#34; ; color: rgb(210 , 148 , 95)&quot;&gt;&lt;font style=&quot;font-size: 12px&quot;&gt;负责构造另一个对象的实例，或者依赖另一个对象的服务。一个类的对象当另外一个类的函数参数或者返回值&lt;/font&gt;&lt;/p&gt;" style="text;html=1;strokeColor=none;fillColor=none;spacing=5;spacingTop=-20;whiteSpace=wrap;overflow=hidden;rounded=0;" parent="1" vertex="1">
                    <mxGeometry x="10" y="170" width="150" height="160" as="geometry"/>
                </mxCell>
                <mxCell id="8" value="" style="endArrow=openThin;html=1;endFill=0;endSize=10;dashed=1;" parent="1" edge="1">
                    <mxGeometry width="50" height="50" relative="1" as="geometry">
                        <mxPoint x="160" y="240" as="sourcePoint"/>
                        <mxPoint x="240" y="240" as="targetPoint"/>
                    </mxGeometry>
                </mxCell>
                <mxCell id="9" value="&lt;h1&gt;关联关系&lt;/h1&gt;&lt;p&gt;&lt;span style=&quot;color: rgb(210 , 148 , 95) ; font-family: &amp;#34;pingfang sc&amp;#34;&quot;&gt;实线和箭头&lt;/span&gt;&lt;br&gt;&lt;/p&gt;&lt;p class=&quot;p1&quot; style=&quot;margin: 0px ; font-stretch: normal ; line-height: normal ; font-family: &amp;#34;pingfang sc&amp;#34; ; color: rgb(210 , 148 , 95)&quot;&gt;&lt;font style=&quot;font-size: 12px&quot;&gt;与对象的特定实例存在固定的对应关系&lt;/font&gt;&lt;/p&gt;" style="text;html=1;strokeColor=none;fillColor=none;spacing=5;spacingTop=-20;whiteSpace=wrap;overflow=hidden;rounded=0;" parent="1" vertex="1">
                    <mxGeometry x="10" y="349" width="150" height="130" as="geometry"/>
                </mxCell>
                <mxCell id="10" value="" style="endArrow=openThin;html=1;endFill=0;endSize=10;" parent="1" edge="1">
                    <mxGeometry width="50" height="50" relative="1" as="geometry">
                        <mxPoint x="160" y="380" as="sourcePoint"/>
                        <mxPoint x="240" y="380" as="targetPoint"/>
                    </mxGeometry>
                </mxCell>
                <mxCell id="11" value="&lt;h1&gt;聚合关系&lt;/h1&gt;&lt;p&gt;&lt;span style=&quot;color: rgb(210 , 148 , 95) ; font-family: &amp;#34;pingfang sc&amp;#34;&quot;&gt;空心棱形和实线箭头（箭头可省略）&lt;/span&gt;&lt;br&gt;&lt;/p&gt;&lt;p class=&quot;p1&quot; style=&quot;margin: 0px ; font-stretch: normal ; line-height: normal ; font-family: &amp;#34;pingfang sc&amp;#34; ; color: rgb(210 , 148 , 95)&quot;&gt;&lt;font style=&quot;font-size: 12px&quot;&gt;弱拥有，两个对象具有各自的生命周期&lt;/font&gt;&lt;/p&gt;" style="text;html=1;strokeColor=none;fillColor=none;spacing=5;spacingTop=-20;whiteSpace=wrap;overflow=hidden;rounded=0;" parent="1" vertex="1">
                    <mxGeometry x="380" y="10" width="150" height="130" as="geometry"/>
                </mxCell>
                <mxCell id="12" value="" style="endArrow=openThin;html=1;endFill=0;endSize=10;startArrow=diamondThin;startFill=0;startSize=10;" parent="1" edge="1">
                    <mxGeometry width="50" height="50" relative="1" as="geometry">
                        <mxPoint x="530" y="41" as="sourcePoint"/>
                        <mxPoint x="610" y="41" as="targetPoint"/>
                    </mxGeometry>
                </mxCell>
                <mxCell id="13" value="&lt;h1&gt;组合关系&lt;/h1&gt;&lt;p&gt;&lt;span style=&quot;color: rgb(210 , 148 , 95) ; font-family: &amp;#34;pingfang sc&amp;#34;&quot;&gt;实心棱形和实线箭头&lt;/span&gt;&lt;br&gt;&lt;/p&gt;&lt;p class=&quot;p1&quot; style=&quot;margin: 0px ; font-stretch: normal ; line-height: normal ; font-family: &amp;#34;pingfang sc&amp;#34; ; color: rgb(210 , 148 , 95)&quot;&gt;&lt;font style=&quot;font-size: 12px&quot;&gt;强拥有，部分和整体的生命周期一样&lt;/font&gt;&lt;/p&gt;" style="text;html=1;strokeColor=none;fillColor=none;spacing=5;spacingTop=-20;whiteSpace=wrap;overflow=hidden;rounded=0;" parent="1" vertex="1">
                    <mxGeometry x="380" y="170" width="150" height="130" as="geometry"/>
                </mxCell>
                <mxCell id="14" value="" style="endArrow=openThin;html=1;endFill=0;endSize=10;startArrow=diamondThin;startFill=1;jumpSize=6;startSize=10;" parent="1" edge="1">
                    <mxGeometry width="50" height="50" relative="1" as="geometry">
                        <mxPoint x="530" y="201" as="sourcePoint"/>
                        <mxPoint x="610" y="201" as="targetPoint"/>
                    </mxGeometry>
                </mxCell>
                <mxCell id="33" style="edgeStyle=none;html=1;entryX=0.5;entryY=0;entryDx=0;entryDy=0;" edge="1" parent="1" source="28" target="29">
                    <mxGeometry relative="1" as="geometry"/>
                </mxCell>
                <mxCell id="34" style="edgeStyle=none;html=1;entryX=0.5;entryY=0;entryDx=0;entryDy=0;" edge="1" parent="1" source="28" target="30">
                    <mxGeometry relative="1" as="geometry"/>
                </mxCell>
                <mxCell id="28" value="依赖" style="rounded=0;whiteSpace=wrap;html=1;" vertex="1" parent="1">
                    <mxGeometry x="610" y="310" width="120" height="60" as="geometry"/>
                </mxCell>
                <mxCell id="37" style="edgeStyle=none;html=1;entryX=0.5;entryY=0;entryDx=0;entryDy=0;" edge="1" parent="1" source="29" target="35">
                    <mxGeometry relative="1" as="geometry"/>
                </mxCell>
                <mxCell id="38" style="edgeStyle=none;html=1;entryX=0.5;entryY=0;entryDx=0;entryDy=0;" edge="1" parent="1" source="29" target="36">
                    <mxGeometry relative="1" as="geometry"/>
                </mxCell>
                <mxCell id="29" value="泛化" style="rounded=0;whiteSpace=wrap;html=1;" vertex="1" parent="1">
                    <mxGeometry x="420" y="430" width="120" height="60" as="geometry"/>
                </mxCell>
                <mxCell id="39" style="edgeStyle=none;html=1;entryX=0.5;entryY=0;entryDx=0;entryDy=0;" edge="1" parent="1" source="30" target="31">
                    <mxGeometry relative="1" as="geometry"/>
                </mxCell>
                <mxCell id="40" style="edgeStyle=none;html=1;entryX=0.5;entryY=0;entryDx=0;entryDy=0;" edge="1" parent="1" source="30" target="32">
                    <mxGeometry relative="1" as="geometry"/>
                </mxCell>
                <mxCell id="30" value="关联" style="rounded=0;whiteSpace=wrap;html=1;" vertex="1" parent="1">
                    <mxGeometry x="780" y="430" width="120" height="60" as="geometry"/>
                </mxCell>
                <mxCell id="31" value="聚合" style="rounded=0;whiteSpace=wrap;html=1;" vertex="1" parent="1">
                    <mxGeometry x="700" y="540" width="120" height="60" as="geometry"/>
                </mxCell>
                <mxCell id="32" value="组合" style="rounded=0;whiteSpace=wrap;html=1;" vertex="1" parent="1">
                    <mxGeometry x="890" y="540" width="120" height="60" as="geometry"/>
                </mxCell>
                <mxCell id="35" value="继承" style="rounded=0;whiteSpace=wrap;html=1;" vertex="1" parent="1">
                    <mxGeometry x="320" y="540" width="120" height="60" as="geometry"/>
                </mxCell>
                <mxCell id="36" value="实现" style="rounded=0;whiteSpace=wrap;html=1;" vertex="1" parent="1">
                    <mxGeometry x="520" y="540" width="120" height="60" as="geometry"/>
                </mxCell>
                <mxCell id="41" value="" style="endArrow=openThin;dashed=1;html=1;endFill=0;endSize=10;" edge="1" parent="1">
                    <mxGeometry width="50" height="50" relative="1" as="geometry">
                        <mxPoint x="750" y="330" as="sourcePoint"/>
                        <mxPoint x="830" y="330" as="targetPoint"/>
                    </mxGeometry>
                </mxCell>
                <mxCell id="42" value="&lt;h1&gt;依赖&lt;/h1&gt;&lt;p&gt;泛化和关联是依赖的特例。一般情况下，函数的参数和返回值，用依赖&lt;/p&gt;" style="text;html=1;strokeColor=none;fillColor=none;spacing=5;spacingTop=-20;whiteSpace=wrap;overflow=hidden;rounded=0;" vertex="1" parent="1">
                    <mxGeometry x="840" y="280" width="190" height="100" as="geometry"/>
                </mxCell>
                <mxCell id="43" value="&lt;h1&gt;泛化&lt;/h1&gt;&lt;p&gt;父与子的关系&lt;/p&gt;" style="text;html=1;strokeColor=none;fillColor=none;spacing=5;spacingTop=-20;whiteSpace=wrap;overflow=hidden;rounded=0;" vertex="1" parent="1">
                    <mxGeometry x="320" y="425" width="80" height="70" as="geometry"/>
                </mxCell>
                <mxCell id="45" value="" style="endArrow=block;html=1;endSize=10;endFill=0;" edge="1" parent="1">
                    <mxGeometry width="50" height="50" relative="1" as="geometry">
                        <mxPoint x="345" y="620" as="sourcePoint"/>
                        <mxPoint x="415" y="620" as="targetPoint"/>
                    </mxGeometry>
                </mxCell>
                <mxCell id="46" value="" style="endArrow=block;html=1;endSize=10;endFill=0;dashed=1;" edge="1" parent="1">
                    <mxGeometry width="50" height="50" relative="1" as="geometry">
                        <mxPoint x="550" y="620" as="sourcePoint"/>
                        <mxPoint x="620" y="620" as="targetPoint"/>
                    </mxGeometry>
                </mxCell>
                <mxCell id="47" value="&lt;h1&gt;关联&lt;/h1&gt;&lt;p&gt;成员属性&lt;/p&gt;" style="text;html=1;strokeColor=none;fillColor=none;spacing=5;spacingTop=-20;whiteSpace=wrap;overflow=hidden;rounded=0;" vertex="1" parent="1">
                    <mxGeometry x="915" y="400" width="70" height="70" as="geometry"/>
                </mxCell>
                <mxCell id="49" value="" style="endArrow=none;html=1;endSize=10;startArrow=diamondThin;startFill=0;startSize=10;" edge="1" parent="1">
                    <mxGeometry width="50" height="50" relative="1" as="geometry">
                        <mxPoint x="730" y="630" as="sourcePoint"/>
                        <mxPoint x="795" y="630" as="targetPoint"/>
                    </mxGeometry>
                </mxCell>
                <mxCell id="50" value="" style="endArrow=none;html=1;endSize=10;startArrow=diamondThin;startFill=1;startSize=10;" edge="1" parent="1">
                    <mxGeometry width="50" height="50" relative="1" as="geometry">
                        <mxPoint x="917.5" y="630" as="sourcePoint"/>
                        <mxPoint x="982.5" y="630" as="targetPoint"/>
                    </mxGeometry>
                </mxCell>
                <mxCell id="51" value="" style="endArrow=openThin;html=1;startSize=10;endSize=10;endFill=0;" edge="1" parent="1">
                    <mxGeometry width="50" height="50" relative="1" as="geometry">
                        <mxPoint x="940" y="479" as="sourcePoint"/>
                        <mxPoint x="1010" y="479" as="targetPoint"/>
                    </mxGeometry>
                </mxCell>
            </root>
        </mxGraphModel>
    </diagram>
</mxfile>